<svg xmlns="http://www.w3.org/2000/svg" width="1058" height="150.33957" viewBox="0 0 1058 150.33957"><rect x="788" y="90.33957" width="30" height="30" style="fill:#e9265c"/><rect x="728" y="90.33957" width="30" height="30" style="fill:#e9265c"/><rect x="698" y="90.33957" width="30" height="30" style="fill:#e9265c"/><rect x="668" y="90.33957" width="30" height="30" style="fill:#e9265c"/><rect x="668" y="60.33957" width="30" height="30" style="fill:#e9265c"/><rect x="608" y="60.33957" width="30" height="30" style="fill:#e9265c"/><rect x="608" y="90.33957" width="30" height="30" style="fill:#e9265c"/><rect x="578" y="90.33957" width="30" height="30" style="fill:#e9265c"/><rect x="578" y="60.33957" width="30" height="30" style="fill:#e9265c"/><rect x="518" y="60.33957" width="30" height="30" style="fill:#e9265c"/><rect x="518" y="90.33957" width="30" height="30" style="fill:#e9265c"/><rect x="488" y="90.33957" width="30" height="30" style="fill:#e9265c"/><rect x="458" y="60.33957" width="30" height="30" style="fill:#e9265c"/><rect x="428" y="60.33957" width="30" height="30" style="fill:#e9265c"/><rect x="428" y="90.33957" width="30" height="30" style="fill:#e9265c"/><rect x="188" y="60.33957" width="30" height="30" style="fill:#e9265c"/><rect x="188" y="90.33957" width="30" height="30" style="fill:#e9265c"/><rect x="158" y="90.33957" width="30" height="30" style="fill:#e9265c"/><rect x="158" y="60.33957" width="30" height="30" style="fill:#e9265c"/><rect x="98" y="30.33957" width="30" height="30" style="fill:#e9265c"/><rect x="68" y="30.33957" width="30" height="30" style="fill:#e9265c"/><rect x="38" y="30.33957" width="30" height="30" style="fill:#e9265c"/><rect x="38" y="60.33957" width="30" height="30" style="fill:#e9265c"/><rect x="38" y="90.33957" width="30" height="30" style="fill:#e9265c"/><rect x="68" y="60.33957" width="30" height="30" style="fill:#e9265c"/><rect x="278" y="60.33957" width="30" height="30" style="fill:#e9265c"/><rect x="278" y="90.33957" width="30" height="30" style="fill:#e9265c"/><rect x="248" y="90.33957" width="30" height="30" style="fill:#e9265c"/><rect x="248" y="60.33957" width="30" height="30" style="fill:#e9265c"/><rect x="368" y="60.33957" width="30" height="30" style="fill:#e9265c"/><rect x="368" y="30.33957" width="30" height="30" style="fill:#e9265c"/><rect x="368" y="90.33957" width="30" height="30" style="fill:#e9265c"/><rect x="338" y="90.33957" width="30" height="30" style="fill:#e9265c"/><rect x="338" y="60.33957" width="30" height="30" style="fill:#e9265c"/><rect x="728" y="60.33957" width="30" height="30" style="fill:#e9265c"/><rect x="788" y="60.33957" width="30" height="30" style="fill:#e9265c"/><rect x="818" y="60.33957" width="30" height="30" style="fill:#e9265c"/><rect x="848" y="90.33957" width="30" height="30" style="fill:#e9265c"/><rect x="878" y="90.33957" width="30" height="30" style="fill:#e9265c"/><rect x="878" y="60.33957" width="30" height="30" style="fill:#e9265c"/><rect x="938" y="90.33957" width="30" height="30" style="fill:#e9265c"/><rect x="968" y="90.33957" width="30" height="30" style="fill:#e9265c"/><rect x="968" y="60.33957" width="30" height="30" style="fill:#e9265c"/><rect x="998" y="60.33957" width="30" height="30" style="fill:#e9265c"/></svg>
